<mxfile host="app.diagrams.net" modified="2021-07-13T13:47:54.619Z" agent="5.0 (Windows)" etag="9597dYCk2e89GEyK4pBk" version="14.8.6" type="github">
  <diagram id="C5RBs43oDa-KdzZeNtuy" name="Page-1">
    <mxGraphModel dx="541" dy="941" grid="1" gridSize="10" guides="1" tooltips="1" connect="1" arrows="1" fold="1" page="1" pageScale="1" pageWidth="827" pageHeight="1169" math="0" shadow="0">
      <root>
        <mxCell id="WIyWlLk6GJQsqaUBKTNV-0" />
        <mxCell id="WIyWlLk6GJQsqaUBKTNV-1" parent="WIyWlLk6GJQsqaUBKTNV-0" />
        <mxCell id="WIyWlLk6GJQsqaUBKTNV-2" value="" style="rounded=0;html=1;jettySize=auto;orthogonalLoop=1;fontSize=11;endArrow=block;endFill=0;endSize=8;strokeWidth=1;shadow=0;labelBackgroundColor=none;edgeStyle=orthogonalEdgeStyle;entryX=0.5;entryY=0;entryDx=0;entryDy=0;" parent="WIyWlLk6GJQsqaUBKTNV-1" source="WIyWlLk6GJQsqaUBKTNV-3" target="LYkyY7AFbMHTQ9h_0V6D-1" edge="1">
          <mxGeometry relative="1" as="geometry">
            <mxPoint x="220" y="170" as="targetPoint" />
          </mxGeometry>
        </mxCell>
        <mxCell id="WIyWlLk6GJQsqaUBKTNV-3" value="프로그램 실행" style="rounded=1;whiteSpace=wrap;html=1;fontSize=12;glass=0;strokeWidth=1;shadow=0;" parent="WIyWlLk6GJQsqaUBKTNV-1" vertex="1">
          <mxGeometry x="160" y="80" width="120" height="40" as="geometry" />
        </mxCell>
        <mxCell id="LYkyY7AFbMHTQ9h_0V6D-1" value="&lt;div&gt;makeMap()&lt;/div&gt;&lt;div&gt;- 맵 외곽 벽으로 채움&lt;/div&gt;&lt;div&gt;- 맵을 4개로 분할&lt;/div&gt;&lt;div&gt;-각 분할 부분을 랜덤한 프리셋으로 채움&lt;br&gt;&lt;/div&gt;" style="rounded=1;whiteSpace=wrap;html=1;" vertex="1" parent="WIyWlLk6GJQsqaUBKTNV-1">
          <mxGeometry x="160" y="150" width="120" height="80" as="geometry" />
        </mxCell>
        <mxCell id="LYkyY7AFbMHTQ9h_0V6D-2" value="&lt;div&gt;initMap()&lt;/div&gt;&lt;div&gt;-맵의 각 칸마다 다음을 적용&lt;/div&gt;&lt;div&gt;1. 밀도 이하의 랜덤 수 생성&lt;br&gt;&lt;/div&gt;&lt;div&gt;2. 랜덤 수가 0,1,2 면 적을 생성&lt;/div&gt;&lt;div&gt;3. 랜덤 수가 3,4,5면 물약을 생성&lt;br&gt;&lt;/div&gt;" style="rounded=1;whiteSpace=wrap;html=1;" vertex="1" parent="WIyWlLk6GJQsqaUBKTNV-1">
          <mxGeometry x="120" y="250" width="200" height="80" as="geometry" />
        </mxCell>
        <mxCell id="LYkyY7AFbMHTQ9h_0V6D-3" value="" style="endArrow=classic;html=1;exitX=0.5;exitY=1;exitDx=0;exitDy=0;entryX=0.5;entryY=0;entryDx=0;entryDy=0;" edge="1" parent="WIyWlLk6GJQsqaUBKTNV-1" source="LYkyY7AFbMHTQ9h_0V6D-1" target="LYkyY7AFbMHTQ9h_0V6D-2">
          <mxGeometry width="50" height="50" relative="1" as="geometry">
            <mxPoint x="250" y="430" as="sourcePoint" />
            <mxPoint x="300" y="380" as="targetPoint" />
          </mxGeometry>
        </mxCell>
        <mxCell id="LYkyY7AFbMHTQ9h_0V6D-4" value="&lt;div&gt;initPlayer()&lt;/div&gt;&lt;div&gt;플레이어 캐릭터의 기본값 설정&lt;br&gt;&lt;/div&gt;" style="rounded=1;whiteSpace=wrap;html=1;" vertex="1" parent="WIyWlLk6GJQsqaUBKTNV-1">
          <mxGeometry x="120" y="350" width="200" height="40" as="geometry" />
        </mxCell>
        <mxCell id="LYkyY7AFbMHTQ9h_0V6D-6" value="" style="endArrow=classic;html=1;exitX=0.5;exitY=1;exitDx=0;exitDy=0;" edge="1" parent="WIyWlLk6GJQsqaUBKTNV-1" source="LYkyY7AFbMHTQ9h_0V6D-2" target="LYkyY7AFbMHTQ9h_0V6D-4">
          <mxGeometry width="50" height="50" relative="1" as="geometry">
            <mxPoint x="280" y="510" as="sourcePoint" />
            <mxPoint x="330" y="460" as="targetPoint" />
          </mxGeometry>
        </mxCell>
        <mxCell id="LYkyY7AFbMHTQ9h_0V6D-7" value="&lt;div&gt;printMap()&lt;/div&gt;&lt;div&gt;맵 출력&lt;br&gt;&lt;/div&gt;" style="rounded=1;whiteSpace=wrap;html=1;" vertex="1" parent="WIyWlLk6GJQsqaUBKTNV-1">
          <mxGeometry x="120" y="450" width="200" height="40" as="geometry" />
        </mxCell>
        <mxCell id="LYkyY7AFbMHTQ9h_0V6D-8" value="&lt;div&gt;printPlayer()&lt;/div&gt;&lt;div&gt;플레이어 정보 출력&lt;br&gt;&lt;/div&gt;" style="rounded=1;whiteSpace=wrap;html=1;" vertex="1" parent="WIyWlLk6GJQsqaUBKTNV-1">
          <mxGeometry x="120" y="500" width="200" height="40" as="geometry" />
        </mxCell>
        <mxCell id="LYkyY7AFbMHTQ9h_0V6D-9" value="&lt;div&gt;printDisc()&lt;/div&gt;&lt;div&gt;입력에 도움이 되는 설명 출력&lt;br&gt;&lt;/div&gt;" style="rounded=1;whiteSpace=wrap;html=1;" vertex="1" parent="WIyWlLk6GJQsqaUBKTNV-1">
          <mxGeometry x="120" y="550" width="200" height="40" as="geometry" />
        </mxCell>
        <mxCell id="LYkyY7AFbMHTQ9h_0V6D-10" value="&lt;div&gt;&amp;nbsp;procInput(input)&lt;/div&gt;&lt;div&gt;입력을 받아서 처리&lt;/div&gt;" style="rounded=1;whiteSpace=wrap;html=1;" vertex="1" parent="WIyWlLk6GJQsqaUBKTNV-1">
          <mxGeometry x="120" y="600" width="200" height="40" as="geometry" />
        </mxCell>
        <mxCell id="LYkyY7AFbMHTQ9h_0V6D-12" value="&lt;div&gt;procInput이 -1을 반환하는가?&lt;/div&gt;" style="rhombus;whiteSpace=wrap;html=1;" vertex="1" parent="WIyWlLk6GJQsqaUBKTNV-1">
          <mxGeometry x="120" y="650" width="200" height="80" as="geometry" />
        </mxCell>
        <mxCell id="LYkyY7AFbMHTQ9h_0V6D-13" value="" style="endArrow=classic;html=1;exitX=0.5;exitY=1;exitDx=0;exitDy=0;entryX=0.5;entryY=0;entryDx=0;entryDy=0;" edge="1" parent="WIyWlLk6GJQsqaUBKTNV-1" source="LYkyY7AFbMHTQ9h_0V6D-4" target="LYkyY7AFbMHTQ9h_0V6D-7">
          <mxGeometry width="50" height="50" relative="1" as="geometry">
            <mxPoint x="250" y="480" as="sourcePoint" />
            <mxPoint x="300" y="430" as="targetPoint" />
          </mxGeometry>
        </mxCell>
        <mxCell id="LYkyY7AFbMHTQ9h_0V6D-14" value="" style="endArrow=classic;html=1;exitX=0.5;exitY=1;exitDx=0;exitDy=0;" edge="1" parent="WIyWlLk6GJQsqaUBKTNV-1" source="LYkyY7AFbMHTQ9h_0V6D-7" target="LYkyY7AFbMHTQ9h_0V6D-8">
          <mxGeometry width="50" height="50" relative="1" as="geometry">
            <mxPoint x="390" y="540" as="sourcePoint" />
            <mxPoint x="440" y="490" as="targetPoint" />
          </mxGeometry>
        </mxCell>
        <mxCell id="LYkyY7AFbMHTQ9h_0V6D-15" value="" style="endArrow=classic;html=1;exitX=0.5;exitY=1;exitDx=0;exitDy=0;entryX=0.5;entryY=0;entryDx=0;entryDy=0;" edge="1" parent="WIyWlLk6GJQsqaUBKTNV-1" source="LYkyY7AFbMHTQ9h_0V6D-8" target="LYkyY7AFbMHTQ9h_0V6D-9">
          <mxGeometry width="50" height="50" relative="1" as="geometry">
            <mxPoint x="230" y="500" as="sourcePoint" />
            <mxPoint x="230" y="510" as="targetPoint" />
          </mxGeometry>
        </mxCell>
        <mxCell id="LYkyY7AFbMHTQ9h_0V6D-16" value="" style="endArrow=classic;html=1;entryX=0.5;entryY=0;entryDx=0;entryDy=0;" edge="1" parent="WIyWlLk6GJQsqaUBKTNV-1" target="LYkyY7AFbMHTQ9h_0V6D-10">
          <mxGeometry width="50" height="50" relative="1" as="geometry">
            <mxPoint x="220" y="591" as="sourcePoint" />
            <mxPoint x="230" y="560" as="targetPoint" />
          </mxGeometry>
        </mxCell>
        <mxCell id="LYkyY7AFbMHTQ9h_0V6D-17" value="" style="endArrow=classic;html=1;entryX=0.5;entryY=0;entryDx=0;entryDy=0;" edge="1" parent="WIyWlLk6GJQsqaUBKTNV-1" target="LYkyY7AFbMHTQ9h_0V6D-12">
          <mxGeometry width="50" height="50" relative="1" as="geometry">
            <mxPoint x="220" y="640" as="sourcePoint" />
            <mxPoint x="230" y="610" as="targetPoint" />
          </mxGeometry>
        </mxCell>
        <mxCell id="LYkyY7AFbMHTQ9h_0V6D-18" value="" style="endArrow=classic;html=1;exitX=1;exitY=0.5;exitDx=0;exitDy=0;" edge="1" parent="WIyWlLk6GJQsqaUBKTNV-1" source="LYkyY7AFbMHTQ9h_0V6D-12">
          <mxGeometry width="50" height="50" relative="1" as="geometry">
            <mxPoint x="230" y="650" as="sourcePoint" />
            <mxPoint x="220" y="420" as="targetPoint" />
            <Array as="points">
              <mxPoint x="370" y="690" />
              <mxPoint x="370" y="420" />
            </Array>
          </mxGeometry>
        </mxCell>
        <mxCell id="LYkyY7AFbMHTQ9h_0V6D-19" value="프로그램 종료" style="rounded=1;whiteSpace=wrap;html=1;" vertex="1" parent="WIyWlLk6GJQsqaUBKTNV-1">
          <mxGeometry x="160" y="750" width="120" height="60" as="geometry" />
        </mxCell>
        <mxCell id="LYkyY7AFbMHTQ9h_0V6D-20" value="" style="endArrow=classic;html=1;exitX=0.5;exitY=1;exitDx=0;exitDy=0;" edge="1" parent="WIyWlLk6GJQsqaUBKTNV-1" source="LYkyY7AFbMHTQ9h_0V6D-12" target="LYkyY7AFbMHTQ9h_0V6D-19">
          <mxGeometry width="50" height="50" relative="1" as="geometry">
            <mxPoint x="290" y="530" as="sourcePoint" />
            <mxPoint x="340" y="480" as="targetPoint" />
          </mxGeometry>
        </mxCell>
      </root>
    </mxGraphModel>
  </diagram>
</mxfile>
